<?xml version="1.0" encoding="UTF-8" standalone="no"?>
<svg width="387px" height="388px" viewBox="0 0 387 388" version="1.1" xmlns="http://www.w3.org/2000/svg" xmlns:xlink="http://www.w3.org/1999/xlink">
    <!-- Generator: Sketch 3.6.1 (26313) - http://www.bohemiancoding.com/sketch -->
    <title>Combined Shape</title>
    <desc>Created with Sketch.</desc>
    <defs></defs>
    <g id="Page-1" stroke="none" stroke-width="1" fill="none" fill-rule="evenodd">
        <g id="Artboard-27" transform="translate(-712.000000, -712.000000)" fill="#0000FF">
            <g id="Group" transform="translate(712.000000, 712.000000)">
                <path d="M386.68172,33.0216508 C386.68172,19.2160876 375.491363,8.02446727 361.690424,8.02446727 L315.959718,8.02446727 C302.157407,8.02446727 290.968423,19.2158678 290.968423,33.0237752 L290.968423,37.9083224 C261.87158,14.1544888 224.351968,0.361940299 182.238117,0.361940299 C81.1648758,0.361940299 0,84.649737 0,194.223873 C0,244.796551 18.376953,290.771712 47.4737953,324.486831 C80.3991694,362.799466 132.467203,387.319552 187.598062,387.319552 C225.117674,387.319552 260.340168,375.825762 290.968423,349.77317 L290.968423,354.657717 C290.968423,368.464454 302.158779,379.657025 315.959718,379.657025 L361.690424,379.657025 C375.492735,379.657025 386.68172,368.458904 386.68172,354.659842 L386.68172,33.0216508 Z M193.269997,285.670233 C243.677024,285.670233 284.539993,244.778109 284.539993,194.335117 C284.539993,143.892125 243.677024,103 193.269997,103 C142.862969,103 102,143.892125 102,194.335117 C102,244.778109 142.862969,285.670233 193.269997,285.670233 Z" id="Combined-Shape"></path>
            </g>
        </g>
    </g>
</svg>